<mxfile host="app.diagrams.net" modified="2021-06-19T16:04:25.053Z" agent="5.0 (Windows NT 10.0; Win64; x64) AppleWebKit/537.36 (KHTML, like Gecko) Chrome/91.0.4472.106 Safari/537.36" etag="6-_kKyCd31j5neA368Vr" version="14.8.0" type="github">
  <diagram name="Page-1" id="90a13364-a465-7bf4-72fc-28e22215d7a0">
    <mxGraphModel dx="781" dy="815" grid="1" gridSize="10" guides="1" tooltips="1" connect="1" arrows="1" fold="1" page="1" pageScale="1.5" pageWidth="1169" pageHeight="826" background="none" math="0" shadow="0">
      <root>
        <mxCell id="0" style=";html=1;" />
        <mxCell id="1" style=";html=1;" parent="0" />
        <mxCell id="uKb51nX8jyAxLlPutz8k-1" value="Design BOM" style="whiteSpace=wrap;html=1;shadow=1;fontSize=18;fillColor=#f5f5f5;strokeColor=#666666;verticalAlign=top;" vertex="1" parent="1">
          <mxGeometry x="597" y="1000" width="170" height="310" as="geometry" />
        </mxCell>
        <mxCell id="uKb51nX8jyAxLlPutz8k-6" style="edgeStyle=orthogonalEdgeStyle;rounded=0;orthogonalLoop=1;jettySize=auto;html=1;exitX=0.25;exitY=1;exitDx=0;exitDy=0;entryX=0;entryY=0.5;entryDx=0;entryDy=0;endArrow=none;endFill=0;" edge="1" parent="1" source="uKb51nX8jyAxLlPutz8k-2" target="uKb51nX8jyAxLlPutz8k-3">
          <mxGeometry relative="1" as="geometry">
            <mxPoint x="655" y="1090" as="targetPoint" />
            <Array as="points">
              <mxPoint x="633" y="1095" />
            </Array>
          </mxGeometry>
        </mxCell>
        <mxCell id="uKb51nX8jyAxLlPutz8k-2" value="Assembly A" style="rounded=1;whiteSpace=wrap;html=1;verticalAlign=middle;" vertex="1" parent="1">
          <mxGeometry x="610" y="1040" width="90" height="30" as="geometry" />
        </mxCell>
        <mxCell id="uKb51nX8jyAxLlPutz8k-3" value="P1" style="rounded=1;whiteSpace=wrap;html=1;verticalAlign=middle;" vertex="1" parent="1">
          <mxGeometry x="650" y="1080" width="50" height="30" as="geometry" />
        </mxCell>
        <mxCell id="uKb51nX8jyAxLlPutz8k-4" value="P2" style="rounded=1;whiteSpace=wrap;html=1;verticalAlign=middle;" vertex="1" parent="1">
          <mxGeometry x="650" y="1120" width="50" height="30" as="geometry" />
        </mxCell>
        <mxCell id="uKb51nX8jyAxLlPutz8k-8" style="edgeStyle=orthogonalEdgeStyle;rounded=0;orthogonalLoop=1;jettySize=auto;html=1;exitX=0.25;exitY=1;exitDx=0;exitDy=0;entryX=0;entryY=0.5;entryDx=0;entryDy=0;endArrow=none;endFill=0;" edge="1" parent="1" source="uKb51nX8jyAxLlPutz8k-2" target="uKb51nX8jyAxLlPutz8k-4">
          <mxGeometry relative="1" as="geometry">
            <mxPoint x="642.5" y="1080" as="sourcePoint" />
            <mxPoint x="660" y="1105" as="targetPoint" />
            <Array as="points">
              <mxPoint x="633" y="1140" />
              <mxPoint x="650" y="1140" />
            </Array>
          </mxGeometry>
        </mxCell>
        <mxCell id="uKb51nX8jyAxLlPutz8k-9" value="Assembly B" style="rounded=1;whiteSpace=wrap;html=1;verticalAlign=middle;" vertex="1" parent="1">
          <mxGeometry x="637" y="1171" width="90" height="30" as="geometry" />
        </mxCell>
        <mxCell id="uKb51nX8jyAxLlPutz8k-10" value="P3" style="rounded=1;whiteSpace=wrap;html=1;verticalAlign=middle;" vertex="1" parent="1">
          <mxGeometry x="677" y="1211" width="50" height="30" as="geometry" />
        </mxCell>
        <mxCell id="uKb51nX8jyAxLlPutz8k-11" value="P4" style="rounded=1;whiteSpace=wrap;html=1;verticalAlign=middle;" vertex="1" parent="1">
          <mxGeometry x="677" y="1251" width="50" height="30" as="geometry" />
        </mxCell>
        <mxCell id="uKb51nX8jyAxLlPutz8k-12" style="edgeStyle=orthogonalEdgeStyle;rounded=0;orthogonalLoop=1;jettySize=auto;html=1;entryX=0;entryY=0.5;entryDx=0;entryDy=0;endArrow=none;endFill=0;" edge="1" target="uKb51nX8jyAxLlPutz8k-11" parent="1">
          <mxGeometry relative="1" as="geometry">
            <mxPoint x="650" y="1201" as="sourcePoint" />
            <mxPoint x="687" y="1236" as="targetPoint" />
            <Array as="points">
              <mxPoint x="660" y="1271" />
              <mxPoint x="677" y="1271" />
            </Array>
          </mxGeometry>
        </mxCell>
        <mxCell id="uKb51nX8jyAxLlPutz8k-13" style="edgeStyle=orthogonalEdgeStyle;rounded=0;orthogonalLoop=1;jettySize=auto;html=1;exitX=0.25;exitY=1;exitDx=0;exitDy=0;endArrow=none;endFill=0;" edge="1" parent="1" source="uKb51nX8jyAxLlPutz8k-9" target="uKb51nX8jyAxLlPutz8k-10">
          <mxGeometry relative="1" as="geometry">
            <mxPoint x="657.5" y="1201" as="sourcePoint" />
            <mxPoint x="675" y="1226" as="targetPoint" />
            <Array as="points">
              <mxPoint x="660" y="1226" />
            </Array>
          </mxGeometry>
        </mxCell>
        <mxCell id="uKb51nX8jyAxLlPutz8k-14" value="Engineering BOM" style="whiteSpace=wrap;html=1;shadow=1;fontSize=18;fillColor=#f5f5f5;strokeColor=#666666;verticalAlign=top;" vertex="1" parent="1">
          <mxGeometry x="850" y="1000" width="170" height="310" as="geometry" />
        </mxCell>
        <mxCell id="uKb51nX8jyAxLlPutz8k-15" style="edgeStyle=orthogonalEdgeStyle;rounded=0;orthogonalLoop=1;jettySize=auto;html=1;exitX=0.25;exitY=1;exitDx=0;exitDy=0;entryX=0;entryY=0.5;entryDx=0;entryDy=0;endArrow=none;endFill=0;" edge="1" source="uKb51nX8jyAxLlPutz8k-16" target="uKb51nX8jyAxLlPutz8k-17" parent="1">
          <mxGeometry relative="1" as="geometry">
            <mxPoint x="908" y="1090" as="targetPoint" />
            <Array as="points">
              <mxPoint x="886" y="1095" />
            </Array>
          </mxGeometry>
        </mxCell>
        <mxCell id="uKb51nX8jyAxLlPutz8k-16" value="Assembly&amp;nbsp;&lt;span style=&quot;color: rgb(36 , 41 , 46) ; font-family: &amp;#34;katex_math&amp;#34; ; font-style: italic ; text-align: left&quot;&gt;&lt;font style=&quot;font-size: 12px&quot;&gt;α&lt;/font&gt;&lt;/span&gt;" style="rounded=1;whiteSpace=wrap;html=1;verticalAlign=middle;" vertex="1" parent="1">
          <mxGeometry x="863" y="1040" width="90" height="30" as="geometry" />
        </mxCell>
        <mxCell id="uKb51nX8jyAxLlPutz8k-17" value="A1" style="rounded=1;whiteSpace=wrap;html=1;verticalAlign=middle;" vertex="1" parent="1">
          <mxGeometry x="903" y="1080" width="50" height="30" as="geometry" />
        </mxCell>
        <mxCell id="uKb51nX8jyAxLlPutz8k-18" value="A2" style="rounded=1;whiteSpace=wrap;html=1;verticalAlign=middle;" vertex="1" parent="1">
          <mxGeometry x="930" y="1160" width="50" height="30" as="geometry" />
        </mxCell>
        <mxCell id="uKb51nX8jyAxLlPutz8k-20" value="Assembly&amp;nbsp;&lt;span style=&quot;color: rgb(36 , 41 , 46) ; font-family: &amp;#34;katex_math&amp;#34; ; font-style: italic ; text-align: left&quot;&gt;&lt;font style=&quot;font-size: 12px&quot;&gt;β&lt;/font&gt;&lt;/span&gt;" style="rounded=1;whiteSpace=wrap;html=1;verticalAlign=middle;" vertex="1" parent="1">
          <mxGeometry x="890" y="1120" width="90" height="30" as="geometry" />
        </mxCell>
        <mxCell id="uKb51nX8jyAxLlPutz8k-21" value="A3" style="rounded=1;whiteSpace=wrap;html=1;verticalAlign=middle;" vertex="1" parent="1">
          <mxGeometry x="930" y="1209" width="50" height="30" as="geometry" />
        </mxCell>
        <mxCell id="uKb51nX8jyAxLlPutz8k-22" value="A4" style="rounded=1;whiteSpace=wrap;html=1;verticalAlign=middle;" vertex="1" parent="1">
          <mxGeometry x="930" y="1251" width="50" height="30" as="geometry" />
        </mxCell>
        <mxCell id="uKb51nX8jyAxLlPutz8k-23" style="edgeStyle=orthogonalEdgeStyle;rounded=0;orthogonalLoop=1;jettySize=auto;html=1;entryX=0;entryY=0.5;entryDx=0;entryDy=0;endArrow=none;endFill=0;" edge="1" target="uKb51nX8jyAxLlPutz8k-22" parent="1">
          <mxGeometry relative="1" as="geometry">
            <mxPoint x="913" y="1150" as="sourcePoint" />
            <mxPoint x="940" y="1236" as="targetPoint" />
            <Array as="points">
              <mxPoint x="913" y="1271" />
              <mxPoint x="930" y="1271" />
            </Array>
          </mxGeometry>
        </mxCell>
        <mxCell id="uKb51nX8jyAxLlPutz8k-24" style="edgeStyle=orthogonalEdgeStyle;rounded=0;orthogonalLoop=1;jettySize=auto;html=1;exitX=0.25;exitY=1;exitDx=0;exitDy=0;endArrow=none;endFill=0;" edge="1" source="uKb51nX8jyAxLlPutz8k-20" target="uKb51nX8jyAxLlPutz8k-21" parent="1">
          <mxGeometry relative="1" as="geometry">
            <mxPoint x="910.5" y="1201" as="sourcePoint" />
            <mxPoint x="928" y="1226" as="targetPoint" />
            <Array as="points">
              <mxPoint x="913" y="1226" />
            </Array>
          </mxGeometry>
        </mxCell>
        <mxCell id="uKb51nX8jyAxLlPutz8k-27" style="edgeStyle=orthogonalEdgeStyle;rounded=0;orthogonalLoop=1;jettySize=auto;html=1;exitX=0.25;exitY=1;exitDx=0;exitDy=0;entryX=0;entryY=0.5;entryDx=0;entryDy=0;endArrow=none;endFill=0;" edge="1" parent="1">
          <mxGeometry relative="1" as="geometry">
            <mxPoint x="912.5" y="1154" as="sourcePoint" />
            <mxPoint x="930" y="1179" as="targetPoint" />
            <Array as="points">
              <mxPoint x="913" y="1179" />
            </Array>
          </mxGeometry>
        </mxCell>
        <mxCell id="uKb51nX8jyAxLlPutz8k-39" value="Manufacturing BOM" style="whiteSpace=wrap;html=1;shadow=1;fontSize=18;fillColor=#f5f5f5;strokeColor=#666666;verticalAlign=top;" vertex="1" parent="1">
          <mxGeometry x="1100" y="1000" width="170" height="310" as="geometry" />
        </mxCell>
        <mxCell id="uKb51nX8jyAxLlPutz8k-40" style="edgeStyle=orthogonalEdgeStyle;rounded=0;orthogonalLoop=1;jettySize=auto;html=1;exitX=0.25;exitY=1;exitDx=0;exitDy=0;entryX=0;entryY=0.5;entryDx=0;entryDy=0;endArrow=none;endFill=0;" edge="1" source="uKb51nX8jyAxLlPutz8k-41" target="uKb51nX8jyAxLlPutz8k-42" parent="1">
          <mxGeometry relative="1" as="geometry">
            <mxPoint x="1158" y="1090" as="targetPoint" />
            <Array as="points">
              <mxPoint x="1136" y="1095" />
            </Array>
          </mxGeometry>
        </mxCell>
        <mxCell id="uKb51nX8jyAxLlPutz8k-41" value="Assembly 1" style="rounded=1;whiteSpace=wrap;html=1;verticalAlign=middle;" vertex="1" parent="1">
          <mxGeometry x="1113" y="1040" width="90" height="30" as="geometry" />
        </mxCell>
        <mxCell id="uKb51nX8jyAxLlPutz8k-42" value="C3" style="rounded=1;whiteSpace=wrap;html=1;verticalAlign=middle;" vertex="1" parent="1">
          <mxGeometry x="1153" y="1080" width="50" height="30" as="geometry" />
        </mxCell>
        <mxCell id="uKb51nX8jyAxLlPutz8k-43" value="C2" style="rounded=1;whiteSpace=wrap;html=1;verticalAlign=middle;" vertex="1" parent="1">
          <mxGeometry x="1153" y="1120" width="50" height="30" as="geometry" />
        </mxCell>
        <mxCell id="uKb51nX8jyAxLlPutz8k-44" style="edgeStyle=orthogonalEdgeStyle;rounded=0;orthogonalLoop=1;jettySize=auto;html=1;exitX=0.25;exitY=1;exitDx=0;exitDy=0;entryX=0;entryY=0.5;entryDx=0;entryDy=0;endArrow=none;endFill=0;" edge="1" source="uKb51nX8jyAxLlPutz8k-41" target="uKb51nX8jyAxLlPutz8k-43" parent="1">
          <mxGeometry relative="1" as="geometry">
            <mxPoint x="1145.5" y="1080" as="sourcePoint" />
            <mxPoint x="1163" y="1105" as="targetPoint" />
            <Array as="points">
              <mxPoint x="1136" y="1140" />
              <mxPoint x="1153" y="1140" />
            </Array>
          </mxGeometry>
        </mxCell>
        <mxCell id="uKb51nX8jyAxLlPutz8k-45" value="Assembly 2" style="rounded=1;whiteSpace=wrap;html=1;verticalAlign=middle;" vertex="1" parent="1">
          <mxGeometry x="1140" y="1171" width="90" height="30" as="geometry" />
        </mxCell>
        <mxCell id="uKb51nX8jyAxLlPutz8k-46" value="C1" style="rounded=1;whiteSpace=wrap;html=1;verticalAlign=middle;" vertex="1" parent="1">
          <mxGeometry x="1180" y="1211" width="50" height="30" as="geometry" />
        </mxCell>
        <mxCell id="uKb51nX8jyAxLlPutz8k-47" value="C7" style="rounded=1;whiteSpace=wrap;html=1;verticalAlign=middle;" vertex="1" parent="1">
          <mxGeometry x="1180" y="1251" width="50" height="30" as="geometry" />
        </mxCell>
        <mxCell id="uKb51nX8jyAxLlPutz8k-48" style="edgeStyle=orthogonalEdgeStyle;rounded=0;orthogonalLoop=1;jettySize=auto;html=1;entryX=0;entryY=0.5;entryDx=0;entryDy=0;endArrow=none;endFill=0;" edge="1" target="uKb51nX8jyAxLlPutz8k-47" parent="1">
          <mxGeometry relative="1" as="geometry">
            <mxPoint x="1153" y="1201" as="sourcePoint" />
            <mxPoint x="1190" y="1236" as="targetPoint" />
            <Array as="points">
              <mxPoint x="1163" y="1271" />
              <mxPoint x="1180" y="1271" />
            </Array>
          </mxGeometry>
        </mxCell>
        <mxCell id="uKb51nX8jyAxLlPutz8k-49" style="edgeStyle=orthogonalEdgeStyle;rounded=0;orthogonalLoop=1;jettySize=auto;html=1;exitX=0.25;exitY=1;exitDx=0;exitDy=0;endArrow=none;endFill=0;" edge="1" source="uKb51nX8jyAxLlPutz8k-45" target="uKb51nX8jyAxLlPutz8k-46" parent="1">
          <mxGeometry relative="1" as="geometry">
            <mxPoint x="1160.5" y="1201" as="sourcePoint" />
            <mxPoint x="1178" y="1226" as="targetPoint" />
            <Array as="points">
              <mxPoint x="1163" y="1226" />
            </Array>
          </mxGeometry>
        </mxCell>
        <mxCell id="uKb51nX8jyAxLlPutz8k-51" value="" style="curved=1;endArrow=classic;html=1;entryX=0;entryY=0.5;entryDx=0;entryDy=0;exitX=1;exitY=0.5;exitDx=0;exitDy=0;startArrow=classic;startFill=1;" edge="1" parent="1" source="uKb51nX8jyAxLlPutz8k-9" target="uKb51nX8jyAxLlPutz8k-16">
          <mxGeometry width="50" height="50" relative="1" as="geometry">
            <mxPoint x="791" y="1140" as="sourcePoint" />
            <mxPoint x="841" y="1090" as="targetPoint" />
            <Array as="points">
              <mxPoint x="841" y="1140" />
              <mxPoint x="791" y="1090" />
            </Array>
          </mxGeometry>
        </mxCell>
        <mxCell id="uKb51nX8jyAxLlPutz8k-52" value="" style="curved=1;endArrow=classic;html=1;startArrow=classic;startFill=1;" edge="1" parent="1" target="uKb51nX8jyAxLlPutz8k-3">
          <mxGeometry width="50" height="50" relative="1" as="geometry">
            <mxPoint x="930" y="1180" as="sourcePoint" />
            <mxPoint x="850" y="1090" as="targetPoint" />
            <Array as="points">
              <mxPoint x="800" y="1170" />
              <mxPoint x="800" y="1090" />
            </Array>
          </mxGeometry>
        </mxCell>
        <mxCell id="uKb51nX8jyAxLlPutz8k-54" value="" style="curved=1;endArrow=classic;html=1;startArrow=classic;startFill=1;entryX=1;entryY=0.5;entryDx=0;entryDy=0;" edge="1" parent="1" target="uKb51nX8jyAxLlPutz8k-11">
          <mxGeometry width="50" height="50" relative="1" as="geometry">
            <mxPoint x="930" y="1270" as="sourcePoint" />
            <mxPoint x="710" y="1208" as="targetPoint" />
            <Array as="points">
              <mxPoint x="810" y="1284" />
              <mxPoint x="810" y="1250" />
            </Array>
          </mxGeometry>
        </mxCell>
        <mxCell id="uKb51nX8jyAxLlPutz8k-55" value="" style="curved=1;endArrow=classic;html=1;startArrow=classic;startFill=1;entryX=1;entryY=0.5;entryDx=0;entryDy=0;exitX=0;exitY=0.5;exitDx=0;exitDy=0;" edge="1" parent="1" source="uKb51nX8jyAxLlPutz8k-47" target="uKb51nX8jyAxLlPutz8k-17">
          <mxGeometry width="50" height="50" relative="1" as="geometry">
            <mxPoint x="1175" y="1190" as="sourcePoint" />
            <mxPoint x="945" y="1104" as="targetPoint" />
            <Array as="points">
              <mxPoint x="1070" y="1240" />
              <mxPoint x="1045" y="1100" />
            </Array>
          </mxGeometry>
        </mxCell>
        <mxCell id="uKb51nX8jyAxLlPutz8k-56" value="" style="curved=1;endArrow=classic;html=1;entryX=0;entryY=0.5;entryDx=0;entryDy=0;exitX=1;exitY=0.5;exitDx=0;exitDy=0;startArrow=classic;startFill=1;" edge="1" parent="1" source="uKb51nX8jyAxLlPutz8k-20" target="uKb51nX8jyAxLlPutz8k-41">
          <mxGeometry width="50" height="50" relative="1" as="geometry">
            <mxPoint x="971" y="1196" as="sourcePoint" />
            <mxPoint x="1107" y="1065" as="targetPoint" />
            <Array as="points">
              <mxPoint x="1070" y="1135" />
              <mxPoint x="1050" y="1070" />
            </Array>
          </mxGeometry>
        </mxCell>
        <mxCell id="uKb51nX8jyAxLlPutz8k-59" value="" style="shape=doubleArrow;whiteSpace=wrap;html=1;verticalAlign=middle;dashed=1;dashPattern=1 1;" vertex="1" parent="1">
          <mxGeometry x="770" y="1136" width="80" height="49" as="geometry" />
        </mxCell>
        <mxCell id="uKb51nX8jyAxLlPutz8k-62" value="" style="shape=doubleArrow;whiteSpace=wrap;html=1;verticalAlign=middle;dashed=1;dashPattern=1 1;" vertex="1" parent="1">
          <mxGeometry x="1021" y="1137" width="80" height="49" as="geometry" />
        </mxCell>
        <mxCell id="uKb51nX8jyAxLlPutz8k-64" value="&lt;font style=&quot;font-size: 18px&quot;&gt;&lt;br&gt;&lt;br&gt;Semantic Network&lt;/font&gt;" style="ellipse;shape=cloud;whiteSpace=wrap;html=1;verticalAlign=top;" vertex="1" parent="1">
          <mxGeometry x="643" y="1400" width="567" height="225" as="geometry" />
        </mxCell>
        <mxCell id="uKb51nX8jyAxLlPutz8k-65" value="" style="ellipse;whiteSpace=wrap;html=1;aspect=fixed;verticalAlign=middle;fillColor=#dae8fc;strokeColor=#6c8ebf;" vertex="1" parent="1">
          <mxGeometry x="778" y="1540" width="20" height="20" as="geometry" />
        </mxCell>
        <mxCell id="uKb51nX8jyAxLlPutz8k-66" value="" style="ellipse;whiteSpace=wrap;html=1;aspect=fixed;verticalAlign=middle;fillColor=#ffe6cc;strokeColor=#d79b00;" vertex="1" parent="1">
          <mxGeometry x="830" y="1510" width="20" height="20" as="geometry" />
        </mxCell>
        <mxCell id="uKb51nX8jyAxLlPutz8k-68" value="" style="ellipse;whiteSpace=wrap;html=1;aspect=fixed;verticalAlign=middle;fillColor=#ffe6cc;strokeColor=#d79b00;" vertex="1" parent="1">
          <mxGeometry x="1080" y="1500" width="20" height="20" as="geometry" />
        </mxCell>
        <mxCell id="uKb51nX8jyAxLlPutz8k-69" value="" style="ellipse;whiteSpace=wrap;html=1;aspect=fixed;verticalAlign=middle;fillColor=#f5f5f5;strokeColor=#666666;fontColor=#333333;" vertex="1" parent="1">
          <mxGeometry x="1041" y="1540" width="20" height="20" as="geometry" />
        </mxCell>
        <mxCell id="uKb51nX8jyAxLlPutz8k-70" value="" style="ellipse;whiteSpace=wrap;html=1;aspect=fixed;verticalAlign=middle;fillColor=#d5e8d4;strokeColor=#82b366;" vertex="1" parent="1">
          <mxGeometry x="980" y="1550" width="20" height="20" as="geometry" />
        </mxCell>
        <mxCell id="uKb51nX8jyAxLlPutz8k-71" value="" style="ellipse;whiteSpace=wrap;html=1;aspect=fixed;verticalAlign=middle;fillColor=#f5f5f5;strokeColor=#666666;fontColor=#333333;" vertex="1" parent="1">
          <mxGeometry x="924.5" y="1570" width="20" height="20" as="geometry" />
        </mxCell>
        <mxCell id="uKb51nX8jyAxLlPutz8k-72" value="" style="ellipse;whiteSpace=wrap;html=1;aspect=fixed;verticalAlign=middle;fillColor=#dae8fc;strokeColor=#6c8ebf;" vertex="1" parent="1">
          <mxGeometry x="918" y="1510" width="20" height="20" as="geometry" />
        </mxCell>
        <mxCell id="uKb51nX8jyAxLlPutz8k-73" value="" style="ellipse;whiteSpace=wrap;html=1;aspect=fixed;verticalAlign=middle;fillColor=#f8cecc;strokeColor=#b85450;" vertex="1" parent="1">
          <mxGeometry x="876.75" y="1540" width="20" height="20" as="geometry" />
        </mxCell>
        <mxCell id="uKb51nX8jyAxLlPutz8k-75" value="" style="ellipse;whiteSpace=wrap;html=1;aspect=fixed;verticalAlign=middle;fillColor=#e1d5e7;strokeColor=#9673a6;" vertex="1" parent="1">
          <mxGeometry x="990" y="1490" width="20" height="20" as="geometry" />
        </mxCell>
        <mxCell id="uKb51nX8jyAxLlPutz8k-78" value="" style="endArrow=none;html=1;exitX=1;exitY=0.5;exitDx=0;exitDy=0;entryX=0;entryY=0.5;entryDx=0;entryDy=0;" edge="1" parent="1" source="uKb51nX8jyAxLlPutz8k-66" target="uKb51nX8jyAxLlPutz8k-72">
          <mxGeometry width="50" height="50" relative="1" as="geometry">
            <mxPoint x="930" y="1540" as="sourcePoint" />
            <mxPoint x="980" y="1490" as="targetPoint" />
          </mxGeometry>
        </mxCell>
        <mxCell id="uKb51nX8jyAxLlPutz8k-79" value="" style="endArrow=none;html=1;entryX=0;entryY=0.5;entryDx=0;entryDy=0;" edge="1" parent="1">
          <mxGeometry width="50" height="50" relative="1" as="geometry">
            <mxPoint x="799" y="1550" as="sourcePoint" />
            <mxPoint x="875.75" y="1550" as="targetPoint" />
          </mxGeometry>
        </mxCell>
        <mxCell id="uKb51nX8jyAxLlPutz8k-80" value="" style="endArrow=none;html=1;exitX=1;exitY=0;exitDx=0;exitDy=0;entryX=0;entryY=1;entryDx=0;entryDy=0;" edge="1" parent="1" source="uKb51nX8jyAxLlPutz8k-65" target="uKb51nX8jyAxLlPutz8k-66">
          <mxGeometry width="50" height="50" relative="1" as="geometry">
            <mxPoint x="930" y="1540" as="sourcePoint" />
            <mxPoint x="980" y="1490" as="targetPoint" />
          </mxGeometry>
        </mxCell>
        <mxCell id="uKb51nX8jyAxLlPutz8k-82" value="" style="endArrow=none;html=1;exitX=1;exitY=1;exitDx=0;exitDy=0;entryX=0;entryY=0;entryDx=0;entryDy=0;" edge="1" parent="1" source="uKb51nX8jyAxLlPutz8k-66" target="uKb51nX8jyAxLlPutz8k-73">
          <mxGeometry width="50" height="50" relative="1" as="geometry">
            <mxPoint x="930" y="1540" as="sourcePoint" />
            <mxPoint x="980" y="1490" as="targetPoint" />
          </mxGeometry>
        </mxCell>
        <mxCell id="uKb51nX8jyAxLlPutz8k-84" value="" style="endArrow=none;html=1;exitX=1;exitY=0;exitDx=0;exitDy=0;" edge="1" parent="1" source="uKb51nX8jyAxLlPutz8k-73">
          <mxGeometry width="50" height="50" relative="1" as="geometry">
            <mxPoint x="930" y="1540" as="sourcePoint" />
            <mxPoint x="920" y="1520" as="targetPoint" />
          </mxGeometry>
        </mxCell>
        <mxCell id="uKb51nX8jyAxLlPutz8k-85" value="" style="endArrow=none;html=1;exitX=0.5;exitY=1;exitDx=0;exitDy=0;entryX=0.5;entryY=0;entryDx=0;entryDy=0;" edge="1" parent="1" source="uKb51nX8jyAxLlPutz8k-72" target="uKb51nX8jyAxLlPutz8k-71">
          <mxGeometry width="50" height="50" relative="1" as="geometry">
            <mxPoint x="930" y="1540" as="sourcePoint" />
            <mxPoint x="980" y="1490" as="targetPoint" />
          </mxGeometry>
        </mxCell>
        <mxCell id="uKb51nX8jyAxLlPutz8k-86" value="" style="endArrow=none;html=1;exitX=1;exitY=0.5;exitDx=0;exitDy=0;entryX=0;entryY=0.5;entryDx=0;entryDy=0;" edge="1" parent="1" source="uKb51nX8jyAxLlPutz8k-73" target="uKb51nX8jyAxLlPutz8k-71">
          <mxGeometry width="50" height="50" relative="1" as="geometry">
            <mxPoint x="930" y="1540" as="sourcePoint" />
            <mxPoint x="980" y="1490" as="targetPoint" />
          </mxGeometry>
        </mxCell>
        <mxCell id="uKb51nX8jyAxLlPutz8k-87" value="" style="endArrow=none;html=1;exitX=1;exitY=0.5;exitDx=0;exitDy=0;entryX=0;entryY=0.5;entryDx=0;entryDy=0;" edge="1" parent="1" source="uKb51nX8jyAxLlPutz8k-72" target="uKb51nX8jyAxLlPutz8k-75">
          <mxGeometry width="50" height="50" relative="1" as="geometry">
            <mxPoint x="930" y="1540" as="sourcePoint" />
            <mxPoint x="980" y="1490" as="targetPoint" />
          </mxGeometry>
        </mxCell>
        <mxCell id="uKb51nX8jyAxLlPutz8k-88" value="" style="endArrow=none;html=1;exitX=1;exitY=0;exitDx=0;exitDy=0;entryX=0.5;entryY=1;entryDx=0;entryDy=0;" edge="1" parent="1" source="uKb51nX8jyAxLlPutz8k-71" target="uKb51nX8jyAxLlPutz8k-75">
          <mxGeometry width="50" height="50" relative="1" as="geometry">
            <mxPoint x="930" y="1540" as="sourcePoint" />
            <mxPoint x="980" y="1490" as="targetPoint" />
          </mxGeometry>
        </mxCell>
        <mxCell id="uKb51nX8jyAxLlPutz8k-90" value="" style="endArrow=none;html=1;entryX=0;entryY=0.5;entryDx=0;entryDy=0;exitX=0.5;exitY=1;exitDx=0;exitDy=0;" edge="1" parent="1" source="uKb51nX8jyAxLlPutz8k-75" target="uKb51nX8jyAxLlPutz8k-69">
          <mxGeometry width="50" height="50" relative="1" as="geometry">
            <mxPoint x="930" y="1540" as="sourcePoint" />
            <mxPoint x="980" y="1490" as="targetPoint" />
          </mxGeometry>
        </mxCell>
        <mxCell id="uKb51nX8jyAxLlPutz8k-91" value="" style="endArrow=none;html=1;entryX=0;entryY=0.5;entryDx=0;entryDy=0;exitX=1;exitY=0.5;exitDx=0;exitDy=0;" edge="1" parent="1" source="uKb51nX8jyAxLlPutz8k-71" target="uKb51nX8jyAxLlPutz8k-70">
          <mxGeometry width="50" height="50" relative="1" as="geometry">
            <mxPoint x="930" y="1540" as="sourcePoint" />
            <mxPoint x="980" y="1490" as="targetPoint" />
          </mxGeometry>
        </mxCell>
        <mxCell id="uKb51nX8jyAxLlPutz8k-92" value="" style="endArrow=none;html=1;entryX=0.5;entryY=1;entryDx=0;entryDy=0;exitX=1;exitY=0.5;exitDx=0;exitDy=0;" edge="1" parent="1" source="uKb51nX8jyAxLlPutz8k-70" target="uKb51nX8jyAxLlPutz8k-69">
          <mxGeometry width="50" height="50" relative="1" as="geometry">
            <mxPoint x="930" y="1540" as="sourcePoint" />
            <mxPoint x="980" y="1490" as="targetPoint" />
          </mxGeometry>
        </mxCell>
        <mxCell id="uKb51nX8jyAxLlPutz8k-93" value="" style="endArrow=none;html=1;exitX=0.5;exitY=0;exitDx=0;exitDy=0;" edge="1" parent="1" source="uKb51nX8jyAxLlPutz8k-70">
          <mxGeometry width="50" height="50" relative="1" as="geometry">
            <mxPoint x="930" y="1540" as="sourcePoint" />
            <mxPoint x="1000" y="1510" as="targetPoint" />
          </mxGeometry>
        </mxCell>
        <mxCell id="uKb51nX8jyAxLlPutz8k-94" value="" style="endArrow=none;html=1;entryX=0;entryY=0.5;entryDx=0;entryDy=0;exitX=1;exitY=0.5;exitDx=0;exitDy=0;" edge="1" parent="1" source="uKb51nX8jyAxLlPutz8k-75" target="uKb51nX8jyAxLlPutz8k-68">
          <mxGeometry width="50" height="50" relative="1" as="geometry">
            <mxPoint x="930" y="1540" as="sourcePoint" />
            <mxPoint x="980" y="1490" as="targetPoint" />
          </mxGeometry>
        </mxCell>
        <mxCell id="uKb51nX8jyAxLlPutz8k-95" value="" style="endArrow=none;html=1;exitX=0;exitY=1;exitDx=0;exitDy=0;entryX=1;entryY=0;entryDx=0;entryDy=0;" edge="1" parent="1" source="uKb51nX8jyAxLlPutz8k-68" target="uKb51nX8jyAxLlPutz8k-69">
          <mxGeometry width="50" height="50" relative="1" as="geometry">
            <mxPoint x="930" y="1540" as="sourcePoint" />
            <mxPoint x="980" y="1490" as="targetPoint" />
          </mxGeometry>
        </mxCell>
        <mxCell id="uKb51nX8jyAxLlPutz8k-96" value="A" style="ellipse;whiteSpace=wrap;html=1;aspect=fixed;verticalAlign=middle;fillColor=#ffe6cc;strokeColor=#d79b00;" vertex="1" parent="1">
          <mxGeometry x="797" y="1650" width="40" height="40" as="geometry" />
        </mxCell>
        <mxCell id="uKb51nX8jyAxLlPutz8k-97" value="B" style="ellipse;whiteSpace=wrap;html=1;aspect=fixed;verticalAlign=middle;fillColor=#ffe6cc;strokeColor=#d79b00;" vertex="1" parent="1">
          <mxGeometry x="917" y="1700" width="40" height="40" as="geometry" />
        </mxCell>
        <mxCell id="uKb51nX8jyAxLlPutz8k-98" value="&lt;span style=&quot;color: rgb(36 , 41 , 46) ; font-family: &amp;#34;katex_math&amp;#34; ; font-style: italic ; text-align: left&quot;&gt;α&lt;/span&gt;" style="ellipse;whiteSpace=wrap;html=1;aspect=fixed;verticalAlign=middle;fillColor=#ffe6cc;strokeColor=#d79b00;" vertex="1" parent="1">
          <mxGeometry x="960" y="1780" width="40" height="40" as="geometry" />
        </mxCell>
        <mxCell id="uKb51nX8jyAxLlPutz8k-99" value="&lt;span style=&quot;color: rgb(36 , 41 , 46) ; font-family: &amp;#34;katex_math&amp;#34; ; font-style: italic ; text-align: left&quot;&gt;β&lt;/span&gt;" style="ellipse;whiteSpace=wrap;html=1;aspect=fixed;verticalAlign=middle;fillColor=#ffe6cc;strokeColor=#d79b00;" vertex="1" parent="1">
          <mxGeometry x="810" y="1740" width="40" height="40" as="geometry" />
        </mxCell>
        <mxCell id="uKb51nX8jyAxLlPutz8k-100" value="&lt;span style=&quot;color: rgb(36 , 41 , 46) ; font-family: &amp;#34;katex_math&amp;#34; ; text-align: left&quot;&gt;1&lt;/span&gt;" style="ellipse;whiteSpace=wrap;html=1;aspect=fixed;verticalAlign=middle;fillColor=#ffe6cc;strokeColor=#d79b00;" vertex="1" parent="1">
          <mxGeometry x="1040" y="1680" width="40" height="40" as="geometry" />
        </mxCell>
        <mxCell id="uKb51nX8jyAxLlPutz8k-101" value="&lt;span style=&quot;color: rgb(36 , 41 , 46) ; font-family: &amp;#34;katex_math&amp;#34; ; text-align: left&quot;&gt;2&lt;/span&gt;" style="ellipse;whiteSpace=wrap;html=1;aspect=fixed;verticalAlign=middle;fillColor=#ffe6cc;strokeColor=#d79b00;" vertex="1" parent="1">
          <mxGeometry x="1073" y="1800" width="40" height="40" as="geometry" />
        </mxCell>
      </root>
    </mxGraphModel>
  </diagram>
</mxfile>
